<?xml version="1.0" encoding="UTF-8"?>
<svg xmlns="http://www.w3.org/2000/svg" xmlns:svg="http://www.w3.org/2000/svg" xmlns:sodipodi="http://sodipodi.sourceforge.net/DTD/sodipodi-0.dtd" xmlns:rdf="http://www.w3.org/1999/02/22-rdf-syntax-ns#" xmlns:inkscape="http://www.inkscape.org/namespaces/inkscape" xmlns:dc="http://purl.org/dc/elements/1.1/" xmlns:cc="http://creativecommons.org/ns#" version="1.1" viewBox="0 0 100 100">
  <defs>
    <style>
      .cls-1 {
        fill: #3f2735;
      }
    </style>
  </defs>
  <!-- Generator: Adobe Illustrator 28.6.0, SVG Export Plug-In . SVG Version: 1.2.0 Build 709)  -->
  <g>
    <g id="Layer_1">
      <path class="cls-1" d="M24.1,28.7c-1.3.8-2.4,1.8-3.4,3.1l-5.8,8c-3.6,4.9-2.6,11.8,2,15.7l-7.5,4.3c-5.5,3.2-7.5,10.3-4.3,15.9l1.8,3.2c3.2,5.5,10.3,7.5,15.9,4.3l4.3-2.5h0c0,.1,35.9-20.6,35.9-20.6l-2.3-4,4.9-2.8c.8,1.3,1.5,2.8,2,4.9,2.7-2.8,2.8-5.2,2.6-7.5l2.1-1.2c.8,1.3,1.5,2.8,2,4.9,2.7-2.8,2.8-5.2,2.6-7.5l1.9-1.1c.8,1.3,1.5,2.8,2,4.9,2.7-2.8,2.8-5.2,2.6-7.5l2-1.1c1.3.9,2.6,2,3.9,3.6,1.1-3,.6-5.1-.2-6.8.3-.4.6-.9.8-1.3,1.6.1,3.4.4,5.5,1.2-.7-3.6-2.4-5.1-4.3-6.3,0-.5,0-.9-.1-1.4,1.5-.9,3.1-1.8,5.5-2.4-2.8-2.7-5.2-2.7-7.5-2.5v-.2c-.3-.4-.5-.7-.8-1.1.7-1.7,1.5-3.4,3.2-5.3-3.7-.6-5.7.6-7.4,2-.6-.3-1.3-.5-1.9-.6-.3-1.6-.5-3.3-.2-5.6-3.3,1.6-4.3,3.6-4.9,5.7-.7.2-1.3.4-1.9.8-.8-1.4-1.5-2.9-2-5-2.7,2.8-2.8,5.2-2.6,7.6l-2.2,1.3c-.8-1.3-1.5-2.9-2-5-2.7,2.8-2.8,5.2-2.6,7.6l-2.1,1.2c-.8-1.3-1.5-2.9-2-5-2.7,2.8-2.8,5.2-2.6,7.6l-1.8,1.1c-.8-1.3-1.5-2.9-2-5-2.7,2.8-2.8,5.2-2.6,7.6l-.8.5-3.1-5.3-3.8,2.2c-.2-.1-.4-.3-.6-.4l-5.1-3.7c-3.9-2.8-9-2.8-12.8-.5ZM27.5,34.3c1.7-1,3.8-1,5.6.2l3.3,2.4-4.6,2.6-9,12.3-1.4-1c-2.3-1.7-2.8-4.7-1.2-7.1l5.8-8c.4-.6.9-1,1.5-1.4ZM52.7,42.1l25-14.4c1.9-1.1,4.3-.5,5.4,1.4l.9,1.5c1.1,1.9.5,4.3-1.4,5.4l-25,14.4-4.8-8.4ZM12.7,65.5l4.3-2.5,6.9,12-4.3,2.5c-2.5,1.4-5.5.6-6.9-1.9l-1.8-3.2c-1.4-2.5-.6-5.5,1.9-6.9Z"/>
    </g>
  </g>
</svg>